<svg width="115" height="23" viewBox="0 0 115 23" fill="none" xmlns="http://www.w3.org/2000/svg">
<path d="M0.92 23V0.599998H10.232C14.776 0.599998 18.04 3.672 18.04 7.928C18.04 12.216 14.776 15.32 10.232 15.32H6.136V23H0.92ZM6.136 10.328H10.232C11.8 10.328 12.824 9.304 12.824 7.928C12.824 6.552 11.8 5.56 10.232 5.56H6.136V10.328ZM20.4825 23V0.599998H30.6265C34.4025 0.599998 37.7625 3.736 37.7625 7.608C37.7625 10.488 36.4505 12.696 34.2745 13.816C35.9065 14.936 36.2585 16.632 36.4825 18.264C36.7385 20.184 36.8345 21.816 37.6025 23H31.5865C31.4265 21.912 31.2345 20.088 31.2025 18.52C31.1065 15.96 29.7945 14.616 27.0745 14.616H25.6985V23H20.4825ZM25.6985 10.136H30.0825C31.4265 10.136 32.5145 9.112 32.5145 7.864C32.5145 6.616 31.4265 5.592 30.0825 5.592H25.6985V10.136ZM40.7325 23V0.599998H54.8125V5.56H45.9485V9.048H53.8525V14.04H45.9485V18.04H54.8125V23H40.7325ZM58.0138 23V0.599998H67.3258C71.8698 0.599998 75.1338 3.672 75.1338 7.928C75.1338 12.216 71.8698 15.32 67.3258 15.32H63.2298V23H58.0138ZM63.2298 10.328H67.3258C68.8938 10.328 69.9178 9.304 69.9178 7.928C69.9178 6.552 68.8938 5.56 67.3258 5.56H63.2298V10.328Z" fill="#B1E87A"/>
<path d="M77.5763 23V0.599998H86.8883C91.4323 0.599998 94.6963 3.672 94.6963 7.928C94.6963 12.216 91.4323 15.32 86.8883 15.32H82.7923V23H77.5763ZM82.7923 10.328H86.8883C88.4563 10.328 89.4803 9.304 89.4803 7.928C89.4803 6.552 88.4563 5.56 86.8883 5.56H82.7923V10.328ZM102.061 23V13.624L94.285 0.599998H100.589L104.589 8.248L108.845 0.599998H114.925L107.277 13.624V23H102.061Z" fill="white"/>
</svg>
