<svg width="58" height="12" viewBox="0 0 58 12" fill="none" xmlns="http://www.w3.org/2000/svg">
<path d="M0.96 12V0.799999H5.616C7.888 0.799999 9.52 2.336 9.52 4.464C9.52 6.608 7.888 8.16 5.616 8.16H3.568V12H0.96ZM3.568 5.664H5.616C6.4 5.664 6.912 5.152 6.912 4.464C6.912 3.776 6.4 3.28 5.616 3.28H3.568V5.664ZM10.7413 12V0.799999H15.8133C17.7013 0.799999 19.3813 2.368 19.3813 4.304C19.3813 5.744 18.7253 6.848 17.6373 7.408C18.4533 7.968 18.6293 8.816 18.7413 9.632C18.8693 10.592 18.9173 11.408 19.3013 12H16.2933C16.2133 11.456 16.1173 10.544 16.1013 9.76C16.0533 8.48 15.3973 7.808 14.0373 7.808H13.3493V12H10.7413ZM13.3493 5.568H15.5413C16.2133 5.568 16.7573 5.056 16.7573 4.432C16.7573 3.808 16.2133 3.296 15.5413 3.296H13.3493V5.568ZM20.8663 12V0.799999H27.9062V3.28H23.4743V5.024H27.4263V7.52H23.4743V9.52H27.9062V12H20.8663ZM29.5069 12V0.799999H34.1629C36.4349 0.799999 38.0669 2.336 38.0669 4.464C38.0669 6.608 36.4349 8.16 34.1629 8.16H32.1149V12H29.5069ZM32.1149 5.664H34.1629C34.9469 5.664 35.4589 5.152 35.4589 4.464C35.4589 3.776 34.9469 3.28 34.1629 3.28H32.1149V5.664Z" fill="#B1E87A"/>
<path d="M39.2881 12V0.799999H43.9441C46.2161 0.799999 47.8481 2.336 47.8481 4.464C47.8481 6.608 46.2161 8.16 43.9441 8.16H41.8961V12H39.2881ZM41.8961 5.664H43.9441C44.7281 5.664 45.2401 5.152 45.2401 4.464C45.2401 3.776 44.7281 3.28 43.9441 3.28H41.8961V5.664ZM51.5305 12V7.312L47.6425 0.799999H50.7945L52.7945 4.624L54.9225 0.799999H57.9625L54.1385 7.312V12H51.5305Z" fill="white"/>
</svg>
